{"title":"The Losers DVDSCR XViD IMAGiNE","uid":5534941,"size":1634577342,"categoryP":"video","categoryS":"movies","magnet":"?xt=urn:btih:6b9a53d65324d5a3051f62538a8add93331096c2&amp;dn=The+Losers+DVDSCR+XViD+IMAGiNE&amp;tr=udp%3A%2F%2Ftracker.openbittorrent.com%3A80&amp;tr=udp%3A%2F%2Fopen.demonii.com%3A1337&amp;tr=udp%3A%2F%2Ftracker.coppersurfer.tk%3A6969&amp;tr=udp%3A%2F%2Fexodus.desync.com%3A6969","seeders":0,"leechers":0,"uploader":"TvTeam","files":6,"time":1273041893,"description":". \n &lt;a href=&quot;\nhttp://www.torrentday.com&quot; rel=&quot;nofollow&quot; target=&quot;_NEW&quot;&gt;\nhttp://www.torrentday.com&lt;/a&gt;   -    Your Key To The Scene.\n\nNow TvTeam with [No-RAR] Releases.\n\n(((((((((((((= Enjoy No RAR releases =))))))))))))))))))))\n\n\n...................................NFO:....................................\n\n\nThe Losers DVDSCR XViD - IMAGiNE\n\n\nRipper ...........: IMAGiNE                                        IMDB Rating.......:6.9/10                             \nVideo Codec.......: XVID                                         Release Date......:04/05/10\nAudio Codec.......:AC-3                                           Theatre Date......:23/04/10\nAudio Bitrate.....:256                                              Runtime.......:1h 32mn\nSubtitles.........:ENG when needed                      Language..........:ENGLISH\nResolution...... 720 x 304                                      IMDb URL..........:http://www.imdb.com/title/tt0480255/\n\n\n[color=yellow]DETAILS:[/color]\n\nVideo\nFormat                           : MPEG-4 Visual\nFormat profile                   : Streaming Video@L1\nFormat settings, BVOP            : Yes\nFormat settings, QPel            : No\nFormat settings, GMC             : No warppoints\nFormat settings, Matrix          : Default\nMuxing mode                      : Packed bitstream\nCodec ID                         : XVID\nCodec ID/Hint                    : XviD\nDuration                         : 1h 36mn\nBit rate                         : 1 958 Kbps\nWidth                            : 720 pixels\nHeight                           : 304 pixels\nDisplay aspect ratio             : 2.35\nFrame rate                       : 23.976 fps\nResolution                       : 24 bits\nColorimetry                      : 4:2:0\nScan type                        : Progressive\nBits/(Pixel*Frame)               : 0.373\nStream size                      : 1.33 GiB (88%)\nWriting library                  : XviD 50\n\nAudio\nFormat                           : AC-3\nFormat/Info                      : Audio Coding 3\nCodec ID                         : 2000\nDuration                         : 1h 36mn\nBit rate mode                    : Constant\nBit rate                         : 256 Kbps\nChannel(s)                       : 2 channels\nChannel positions                : L R\nSampling rate                    : 48.0 KHz\nStream size                      : 178 MiB (12%)\nAlignment                        : Aligned on interleaves\nInterleave, duration             : 42 ms (1.00 video frame)\nInterleave, preload duration     : 512 ms\n\n\n\n\n\n\nIMAGiNE bringing you another release.....The Losers DVDSCR\nWell wouldn't you know it, as soon as we do a TS of the losers a DVDSCR was dumped in our lap by our good friend MrFreestyle... Thanx bro\nThis turned out to be a very nice source so not much had been done other than a few tweaks here and there. Audio is nice crisp studio audio. Scanned through it and did not see any property of or anything like that, but i could have missed it.","torrent":{"xt":"urn:btih:6b9a53d65324d5a3051f62538a8add93331096c2","amp;dn":"The+Losers+DVDSCR+XViD+IMAGiNE","amp;tr":["udp%3A%2F%2Ftracker.openbittorrent.com%3A80","udp%3A%2F%2Fopen.demonii.com%3A1337","udp%3A%2F%2Ftracker.coppersurfer.tk%3A6969","udp%3A%2F%2Fexodus.desync.com%3A6969"],"infoHash":"6b9a53d65324d5a3051f62538a8add93331096c2","infoHashBuffer":{"type":"Buffer","data":[107,154,83,214,83,36,213,163,5,31,98,83,138,138,221,147,51,16,150,194]},"announce":[],"urlList":[]}}